<svg id="Layer_1" enable-background="new 0 0 512 512" height="300" viewBox="0 0 512 512" width="300" xmlns="http://www.w3.org/2000/svg" version="1.1" xmlns:xlink="http://www.w3.org/1999/xlink" xmlns:svgjs="http://svgjs.dev/svgjs"><g width="100%" height="100%" transform="matrix(1,0,0,1,0,0)"><g id="XMLID_1_"><g id="XMLID_4214_"><path id="XMLID_1266_" d="m224.2 70.3-38.5-38.5-88.5 88.5c-10.6 10.6-10.6 27.9 0 38.5 10.6 10.6 27.9 10.6 38.5 0z" fill="#dddddd" fill-opacity="1" data-original-color="#c4c1abff" stroke="none" stroke-opacity="1"/><path id="XMLID_431_" d="m203.7 49.7-18-17.9-25.3 25.3 24.3 11.6z" fill="#ffffff" fill-opacity="1" data-original-color="#ebeadfff" stroke="none" stroke-opacity="1"/><path id="XMLID_1265_" d="m483.3 319.9-38.5-38.5-88.5 88.5c-10.6 10.6-10.6 27.9 0 38.5 10.6 10.6 27.9 10.6 38.5 0z" fill="#dddddd" fill-opacity="1" data-original-color="#c4c1abff" stroke="none" stroke-opacity="1"/><path id="XMLID_495_" d="m464.5 301.2-19.8-19.8-19.6 19.7 15.9 22.7z" fill="#ffffff" fill-opacity="1" data-original-color="#ebeadfff" stroke="none" stroke-opacity="1"/><path id="XMLID_1269_" d="m128 328h-97l-26 20.9 98.1 60 53.7 98.1 27.2-26v-97-56z" fill="#68a1d6" fill-opacity="1" data-original-color="#68a1d6ff" stroke="none" stroke-opacity="1"/><path id="XMLID_683_" d="m103.1 408.9 80.9-80.9v153l-27.2 26z" fill="#3179af" fill-opacity="1" data-original-color="#3179afff" stroke="none" stroke-opacity="1"/><path id="XMLID_1267_" d="m59.5 5-54.5 42.9 251 208.1 208.1 251 42.9-54.5-175-272.5z" fill="#68a1d6" fill-opacity="1" data-original-color="#68a1d6ff" stroke="none" stroke-opacity="1"/><path id="XMLID_1481_" d="m507 452.5-175-272.5-76 76 208.1 251z" fill="#3179af" fill-opacity="1" data-original-color="#3179afff" stroke="none" stroke-opacity="1"/><path id="XMLID_1436_" d="m472.6 136.7c22-20.7 34.4-49.5 34.4-79.7v-22c0-16.6-13.4-30-30-30h-22c-30.2 0-59 12.4-79.7 34.4l-246 260.8c-34.9 37-54.3 86-54.3 136.8 50.9 0 99.8-19.4 136.8-54.3z" fill="#ffffff" fill-opacity="1" data-original-color="#ebeadfff" stroke="none" stroke-opacity="1"/><path id="XMLID_2078_" d="m477 5h-5v17h.2c0 31-12.3 59.2-34.3 79.9l-260.7 246.1c-27.6 26-61.8 43.5-98.6 50.7-2.4 12.6-3.6 25.4-3.6 38.3 50.9 0 99.8-19.4 136.8-54.3l260.8-246c22-20.7 34.4-49.5 34.4-79.7v-22c0-16.6-13.4-30-30-30z" fill="#dddddd" fill-opacity="1" data-original-color="#c4c1abff" stroke="none" stroke-opacity="1"/><path id="XMLID_1227_" d="m172.5 387 271.7-271.7c13.1-13.1 13.1-34.4 0-47.5-13.1-13.1-34.4-13.1-47.5 0l-271.7 271.7c-13.1 13.1-13.1 34.4 0 47.5 13.1 13.1 34.4 13.1 47.5 0z" fill="#ffffff" fill-opacity="1" data-original-color="#ebeadfff" stroke="none" stroke-opacity="1"/><path id="XMLID_1268_" d="m75.6 457.6h-21.2v-21.2l63-63 23.3-2.1-2.1 23.3z" fill="#68a1d6" fill-opacity="1" data-original-color="#68a1d6ff" stroke="none" stroke-opacity="1"/><path id="XMLID_690_" d="m138.6 394.8 2.1-23.2-86.3 86.4h21.2z" fill="#3179af" fill-opacity="1" data-original-color="#3179afff" stroke="none" stroke-opacity="1"/><g id="XMLID_1226_"><path id="XMLID_1229_" d="m444.1 122.5-7.1-7.1 3.7-3.7c5.4-5.4 8.4-12.6 8.4-20.2s-3-14.8-8.4-20.2-12.6-8.4-20.2-8.4-14.8 3-20.2 8.4l-3.7 3.7-7.1-7.1 3.7-3.7c15.1-15.1 39.5-15.1 54.6 0s15.1 39.5 0 54.6z" fill="#68a1d6" fill-opacity="1" data-original-color="#68a1d6ff" stroke="none" stroke-opacity="1"/></g></g></g></g></svg>