<svg id="Layer_1" enable-background="new 0 0 66 66" viewBox="0 0 66 66" xmlns="http://www.w3.org/2000/svg" width="300" height="300" version="1.1" xmlns:xlink="http://www.w3.org/1999/xlink" xmlns:svgjs="http://svgjs.dev/svgjs"><g width="100%" height="100%" transform="matrix(1,0,0,1,0,0)"><g><path d="m41.74 13.1h-3.54v-1.53c0-1.52-1.23-2.75-2.75-2.75h-2.27c-.43 0-.8-.29-.9-.69-.74-3.02-3.43-5.13-6.53-5.13-3.11 0-5.8 2.11-6.54 5.12-.1.41-.47.69-.9.69h-2.27c-1.52 0-2.75 1.23-2.75 2.75v1.53h-3.54c-2.51 0-4.55 2.04-4.55 4.55v40.81c0 2.51 2.04 4.55 4.55 4.55h31.99c2.51 0 4.55-2.04 4.55-4.55v-40.81c0-2.5-2.04-4.54-4.55-4.54zm-26.63-1.53c0-.52.42-.93.93-.93h2.27c1.27 0 2.36-.86 2.66-2.08.54-2.2 2.5-3.74 4.77-3.74s4.23 1.54 4.77 3.74c.3 1.23 1.39 2.08 2.66 2.08h2.27c.52 0 .93.42.93.93v4.87c0 .52-.42.93-.93.93h-19.4c-.51 0-.93-.42-.93-.93zm29.36 46.88c0 1.5-1.22 2.73-2.73 2.73h-31.99c-1.5 0-2.73-1.22-2.73-2.73v-40.81c0-1.5 1.22-2.73 2.73-2.73h3.55v1.53c0 1.52 1.23 2.75 2.75 2.75h19.4c1.52 0 2.75-1.23 2.75-2.75v-1.53h3.55c1.5 0 2.73 1.22 2.73 2.73v40.81z" fill="#009a92" fill-opacity="1" data-original-color="#000000ff" stroke="none" stroke-opacity="1"/><path d="m15.04 35.76 1.33.39c.18.6.42 1.17.71 1.73l-.66 1.21c-.19.35-.13.79.16 1.08l2.28 2.28c.29.29.72.35 1.08.16l1.21-.66c.55.29 1.13.53 1.73.72l.39 1.33c.11.39.47.65.87.65h3.22c.4 0 .76-.27.87-.65l.39-1.33c.6-.18 1.17-.42 1.72-.72l1.21.66c.36.19.79.13 1.08-.16l2.28-2.28c.28-.28.35-.72.16-1.08l-.66-1.21c.29-.55.53-1.13.72-1.73l1.33-.39c.39-.11.65-.47.65-.87v-3.22c0-.4-.27-.76-.65-.87l-1.33-.39c-.18-.6-.42-1.17-.72-1.73l.66-1.21c.19-.35.13-.79-.16-1.08l-2.28-2.28c-.29-.29-.72-.35-1.08-.15l-1.21.66c-.55-.29-1.13-.53-1.72-.72l-.39-1.33c-.11-.39-.47-.65-.87-.65h-3.22c-.4 0-.76.27-.87.65l-.39 1.33c-.6.18-1.17.42-1.73.72l-1.21-.66c-.35-.19-.79-.13-1.08.16l-2.28 2.28c-.28.29-.35.72-.16 1.08l.66 1.21c-.29.55-.53 1.13-.71 1.73l-1.33.39c-.39.11-.65.47-.65.87v3.22c0 .39.26.74.65.86zm1.17-3.42 1.16-.34c.31-.09.55-.34.63-.65.19-.77.5-1.51.91-2.2.17-.28.17-.62.02-.91l-.58-1.06 1.32-1.32 1.06.58c.28.15.63.15.91-.02.68-.41 1.42-.72 2.2-.91.31-.08.56-.32.65-.63l.34-1.16h1.86l.34 1.16c.09.31.34.55.65.63.77.19 1.51.5 2.2.91.28.17.62.18.91.02l1.06-.58 1.32 1.32-.58 1.06c-.15.28-.15.63.02.91.41.68.72 1.42.91 2.2.08.31.32.56.63.65l1.16.34v1.86l-1.16.34c-.31.09-.55.34-.63.65-.19.77-.5 1.51-.91 2.2-.17.28-.17.62-.02.91l.58 1.06-1.32 1.32-1.06-.58c-.29-.15-.63-.15-.91.02-.68.41-1.42.72-2.2.91-.31.08-.56.32-.65.63l-.34 1.16h-1.86l-.34-1.16c-.09-.31-.34-.55-.65-.63-.77-.19-1.51-.5-2.2-.91-.28-.17-.62-.17-.91-.02l-1.06.58-1.32-1.32.58-1.06c.15-.28.15-.63-.02-.91-.41-.68-.72-1.42-.91-2.2-.08-.31-.32-.56-.63-.65l-1.16-.34z" fill="#009a92" fill-opacity="1" data-original-color="#000000ff" stroke="none" stroke-opacity="1"/><path d="m25.75 38.67c2.97 0 5.4-2.42 5.4-5.4s-2.42-5.4-5.4-5.4-5.4 2.42-5.4 5.4 2.42 5.4 5.4 5.4zm0-8.97c1.97 0 3.58 1.61 3.58 3.58s-1.61 3.58-3.58 3.58-3.58-1.61-3.58-3.58 1.6-3.58 3.58-3.58z" fill="#009a92" fill-opacity="1" data-original-color="#000000ff" stroke="none" stroke-opacity="1"/><path d="m40.25 46.97h-29.01c-.38 0-.68.31-.68.68s.31.68.68.68h29.02c.38 0 .68-.31.68-.68s-.31-.68-.69-.68z" fill="#009a92" fill-opacity="1" data-original-color="#000000ff" stroke="none" stroke-opacity="1"/><path d="m35.01 51.88h-18.53c-.38 0-.68.31-.68.68 0 .38.31.68.68.68h18.54c.38 0 .68-.31.68-.68s-.31-.68-.69-.68z" fill="#009a92" fill-opacity="1" data-original-color="#000000ff" stroke="none" stroke-opacity="1"/><path d="m31.67 56.79h-11.85c-.38 0-.68.31-.68.68 0 .38.31.68.68.68h11.84c.38 0 .68-.31.68-.68.01-.37-.3-.68-.67-.68z" fill="#009a92" fill-opacity="1" data-original-color="#000000ff" stroke="none" stroke-opacity="1"/><path d="m57.16 17.37h-4.25c-2.01 0-3.64 1.63-3.64 3.64v3.95 27.05.02c0 .11.02.21.06.31.01.03.02.05.03.07.02.04.03.07.05.11l4.85 7.27c.17.25.45.4.76.4.3 0 .59-.15.76-.4l4.85-7.27c.02-.03.03-.07.05-.11.01-.02.03-.05.04-.07.04-.1.06-.2.06-.31 0-.01 0-.01 0-.02v-27.05-3.95c.02-2-1.62-3.64-3.62-3.64zm-6.07 33.74v-25.24h3.04v25.24zm4.85-25.24h3.04v25.24h-3.04zm-4.85-4.86c0-1 .82-1.82 1.82-1.82h4.25c1 0 1.82.82 1.82 1.82v3.04h-7.89zm3.94 36.64-3.15-4.73h6.31z" fill="#009a92" fill-opacity="1" data-original-color="#000000ff" stroke="none" stroke-opacity="1"/></g></g></svg>