<svg id="Capa_1" enable-background="new 0 0 512 512" viewBox="0 0 512 512" xmlns="http://www.w3.org/2000/svg" width="300" height="300" version="1.1" xmlns:xlink="http://www.w3.org/1999/xlink" xmlns:svgjs="http://svgjs.dev/svgjs"><g width="100%" height="100%" transform="matrix(1,0,0,1,0,0)"><g><g><g><path d="m188.768 165.313c-2.002 0-4.003-.764-5.53-2.291-3.055-3.054-3.055-8.006 0-11.06l21.051-21.051c3.054-3.054 8.006-3.054 11.06 0 3.055 3.054 3.055 8.006 0 11.06l-21.051 21.051c-1.527 1.527-3.528 2.291-5.53 2.291z" fill="#b3dafe" fill-opacity="1" data-original-color="#b3dafeff" stroke="none" stroke-opacity="1"/></g><g><path d="m107.91 113.675c-2.002 0-4.003-.764-5.53-2.291-3.054-3.054-3.054-8.006 0-11.06l15.667-15.667c3.054-3.054 8.006-3.054 11.06 0 3.055 3.054 3.055 8.006 0 11.06l-15.667 15.667c-1.526 1.528-3.528 2.291-5.53 2.291z" fill="#b3dafe" fill-opacity="1" data-original-color="#b3dafeff" stroke="none" stroke-opacity="1"/></g><g><path d="m354.508 331.052c-2.002 0-4.003-.764-5.53-2.291-3.055-3.054-3.055-8.006 0-11.06l21.051-21.051c3.054-3.054 8.006-3.054 11.06 0 3.055 3.054 3.055 8.006 0 11.06l-21.051 21.051c-1.527 1.528-3.528 2.291-5.53 2.291z" fill="#b3dafe" fill-opacity="1" data-original-color="#b3dafeff" stroke="none" stroke-opacity="1"/></g><g><path d="m406.145 411.91c-2.002 0-4.003-.764-5.53-2.291-3.055-3.054-3.055-8.006 0-11.06l15.667-15.667c3.054-3.054 8.006-3.054 11.06 0 3.055 3.054 3.055 8.006 0 11.06l-15.667 15.667c-1.526 1.528-3.528 2.291-5.53 2.291z" fill="#b3dafe" fill-opacity="1" data-original-color="#b3dafeff" stroke="none" stroke-opacity="1"/></g></g><path d="m205.044 90.83-27.626-27.626c-5.023-5.023-5.023-13.167 0-18.19l41.247-41.247c5.023-5.023 13.167-5.023 18.19 0l27.626 27.626c5.023 5.023 5.023 13.167 0 18.19l-41.246 41.247c-5.023 5.023-13.167 5.023-18.191 0z" fill="#c4e2ff" fill-opacity="1" data-original-color="#c4e2ffff" stroke="none" stroke-opacity="1"/><path d="m264.487 49.582-41.253 41.253c-5.026 5.016-13.17 5.016-18.186 0l-6.34-6.34 34.913-34.912c5.016-5.026 5.016-13.171 0-18.186l-21.294-21.283 6.34-6.34c5.026-5.026 13.17-5.026 18.186 0l27.634 27.623c5.016 5.015 5.016 13.159 0 18.185z" fill="#b3dafe" fill-opacity="1" data-original-color="#b3dafeff" stroke="none" stroke-opacity="1"/><path d="m421.17 306.956 27.626 27.626c5.023 5.023 13.167 5.023 18.19 0l41.247-41.247c5.023-5.023 5.023-13.167 0-18.19l-27.626-27.626c-5.023-5.023-13.167-5.023-18.19 0l-41.247 41.247c-5.023 5.022-5.023 13.166 0 18.19z" fill="#c4e2ff" fill-opacity="1" data-original-color="#c4e2ffff" stroke="none" stroke-opacity="1"/><path d="m508.228 293.333-41.242 41.253c-5.026 5.016-13.17 5.016-18.186 0l-6.34-6.34 34.912-34.912c5.016-5.026 5.016-13.171 0-18.186l-21.294-21.294 6.34-6.34c5.026-5.016 13.17-5.016 18.186 0l27.623 27.634c5.027 5.015 5.027 13.159.001 18.185z" fill="#b3dafe" fill-opacity="1" data-original-color="#b3dafeff" stroke="none" stroke-opacity="1"/><path d="m352.322 96.923-25.045 57.424-65.966 33.587-51.492-51.493-136.054-72.973 1.6-22.452 44.07-23.218z" fill="#fbfeff" fill-opacity="1" data-original-color="#eaf6ffff" stroke="none" stroke-opacity="1"/><path d="m119.435 17.798-16.285 8.58 204.976 69.645c5.463 1.856 7.082 8.801 3.002 12.881l-64.423 64.423 14.606 14.606 65.966-33.587 25.045-57.424z" fill="#f3f9ff" fill-opacity="1" data-original-color="#d8ecfeff" stroke="none" stroke-opacity="1"/><path d="m108.901 28.332-35.136 35.136-29.994-16.085c-5.796-3.109-6.144-11.291-.633-14.88l32.074-20.888c5.629-3.667 12.642-4.552 19.003-2.388z" fill="#8795de" fill-opacity="1" data-original-color="#8795deff" stroke="none" stroke-opacity="1"/><path d="m108.901 28.332 10.534-10.534-25.22-8.573c-6.361-2.163-13.374-1.279-19.003 2.389l-5.319 3.464z" fill="#6c7fd8" fill-opacity="1" data-original-color="#6c7fd8ff" stroke="none" stroke-opacity="1"/><path d="m494.2 392.563-13.066 41.722-9.124 1.105-23.473 2.847-72.974-136.051-51.492-51.492 36.09-60.356 36.685-20.48 18.228-10.178z" fill="#fbfeff" fill-opacity="1" data-original-color="#eaf6ffff" stroke="none" stroke-opacity="1"/><path d="m494.2 392.563-13.066 41.721-9.124 1.105c2.961-5.37 3.535-11.752 1.554-17.602l-80.294-236.302 3.577-11.627 18.228-10.178z" fill="#f3f9ff" fill-opacity="1" data-original-color="#d8ecfeff" stroke="none" stroke-opacity="1"/><path d="m472.401 414.366-23.869 23.869 16.086 29.994c3.109 5.796 11.291 6.144 14.88.633l20.888-32.074c3.667-5.629 4.552-12.642 2.388-19.003z" fill="#8795de" fill-opacity="1" data-original-color="#8795deff" stroke="none" stroke-opacity="1"/><path d="m502.774 417.784-8.573-25.219-21.801 21.801 1.162 3.418c2.163 6.361 1.279 13.374-2.388 19.003l-12.843 19.72 6.286 11.721c3.109 5.796 11.291 6.144 14.88.633l20.888-32.074c3.668-5.629 4.553-12.642 2.389-19.003z" fill="#6c7fd8" fill-opacity="1" data-original-color="#6c7fd8ff" stroke="none" stroke-opacity="1"/><path d="m488.59 80.596c-3.368 7.028-7.925 13.514-13.546 19.135l-6.382 6.382c-.083.094-.167.177-.25.261l-246.199 246.189c-22.461 22.461-49.177 40.199-78.594 52.191l-61.347 24.985 24.985-61.346c11.992-29.417 29.73-56.133 52.191-78.594l246.189-246.19c.01-.01.01-.01.01-.01l6.632-6.632c5.495-5.495 11.804-9.969 18.655-13.316 10-4.891 21.127-7.352 32.482-7.039l20.136.563c6.163.167 11.116 5.12 11.283 11.283l.563 20.136c.314 11.178-2.074 22.127-6.808 32.002z" fill="#fbfeff" fill-opacity="1" data-original-color="#eaf6ffff" stroke="none" stroke-opacity="1"/><path d="m495.399 48.598-.561-20.135c-.172-6.163-5.127-11.118-11.29-11.29l-18.204-.507.842 31.932c.532 19.117-6.828 37.611-20.351 51.134l-252.831 252.831c-22.46 22.46-49.185 40.204-78.602 52.187l-26.316 10.72-5.812 14.267 61.34-24.986c29.417-11.983 56.141-29.726 78.602-52.187l252.832-252.833c13.523-13.523 20.884-32.016 20.351-51.133z" fill="#f3f9ff" fill-opacity="1" data-original-color="#d8ecfeff" stroke="none" stroke-opacity="1"/><path d="m128.892 327.3-97.37-23.159c-4.626-1.1-9.491.278-12.854 3.64l-15.923 15.922c-4.467 4.467-3.321 11.984 2.274 14.917l70.516 36.978z" fill="#8795de" fill-opacity="1" data-original-color="#8795deff" stroke="none" stroke-opacity="1"/><path d="m158.525 395.878 49.334 84.601c1.1 4.626-.277 9.491-3.64 12.854l-15.923 15.923c-4.467 4.467-11.984 3.321-14.917-2.273l-49.414-94.244z" fill="#8795de" fill-opacity="1" data-original-color="#8795deff" stroke="none" stroke-opacity="1"/><path d="m128.893 327.297-29.636 60.742-23.723-12.44 24.349-55.205z" fill="#6c7fd8" fill-opacity="1" data-original-color="#6c7fd8ff" stroke="none" stroke-opacity="1"/><path d="m207.86 480.479-23.159-97.37-26.175 12.77 20.122 84.601c1.1 4.626-.277 9.491-3.64 12.854l-5.764 5.764 4.135 7.886c2.933 5.595 10.451 6.74 14.917 2.273l15.923-15.923c3.363-3.364 4.741-8.23 3.641-12.855z" fill="#6c7fd8" fill-opacity="1" data-original-color="#6c7fd8ff" stroke="none" stroke-opacity="1"/><g><path d="m61.582 458.25c-2.002 0-4.003-.764-5.53-2.291-3.055-3.054-3.055-8.006 0-11.06l71.409-71.409c3.054-3.054 8.006-3.054 11.06 0 3.055 3.054 3.055 8.006 0 11.06l-71.409 71.41c-1.527 1.526-3.529 2.29-5.53 2.29z" fill="#6c7fd8" fill-opacity="1" data-original-color="#6c7fd8ff" stroke="none" stroke-opacity="1"/></g><g><g><path d="m469.528 67.44-6.507 3.938-27.342-27.342c-8.155-8.165-21.877-8.592-30.032-.438l6.632-6.632c5.495-5.495 11.804-9.969 18.655-13.316 5.913 1.689 11.335 4.859 15.808 9.323l19.448 19.448z" fill="#c4e2ff" fill-opacity="1" data-original-color="#c4e2ffff" stroke="none" stroke-opacity="1"/></g></g><path d="m488.59 80.596c-3.368 7.028-7.925 13.514-13.546 19.135l-6.382 6.382c7.915-8.175 7.936-21.168-.146-29.239l-5.495-5.495c1.919-6.1 3.003-12.472 3.17-18.958l13.389 13.389c4.213 4.212 7.268 9.27 9.01 14.786z" fill="#b3dafe" fill-opacity="1" data-original-color="#b3dafeff" stroke="none" stroke-opacity="1"/></g><g/><g/><g/><g/><g/><g/><g/><g/><g/><g/><g/><g/><g/><g/><g/></g></svg>