<svg height="300" viewBox="0 0 512.00042 512" width="300" xmlns="http://www.w3.org/2000/svg" version="1.1" xmlns:xlink="http://www.w3.org/1999/xlink" xmlns:svgjs="http://svgjs.dev/svgjs"><g width="100%" height="100%" transform="matrix(1,0,0,1,0,0)"><path d="m98.425781 433.722656-48.347656 32.621094-4.421875-4.421875 32.625-48.34375 94.164062-80.15625 6.136719 6.136719zm0 0" fill="#cad8ea" fill-opacity="1" data-original-color="#cad8eaff" stroke="none" stroke-opacity="1"/><path d="m385.90625 200.003906-82.214844 79.765625 113.257813 197.109375 21.476562-21.472656zm0 0" fill="#009a92" fill-opacity="1" data-original-color="#d15573ff" stroke="none" stroke-opacity="1"/><path d="m311.992188 126.089844-255.402344-52.519532-21.472656 21.476563 197.109374 113.257813zm0 0" fill="#009a92" fill-opacity="1" data-original-color="#d15573ff" stroke="none" stroke-opacity="1"/><g fill="#cad8ea"><path d="m429.695312 412.953125 39.28125-39.28125-29.480468-29.480469-19.855469 19.859375zm0 0" fill="#cad8ea" fill-opacity="1" data-original-color="#cad8eaff" stroke="none" stroke-opacity="1"/><path d="m412.433594 329.003906 32.421875-32.421875-29.480469-29.480469-12.996094 12.996094zm0 0" fill="#cad8ea" fill-opacity="1" data-original-color="#cad8eaff" stroke="none" stroke-opacity="1"/><path d="m231.890625 109.617188 13-13-29.480469-29.480469-32.425781 32.425781zm0 0" fill="#cad8ea" fill-opacity="1" data-original-color="#cad8eaff" stroke="none" stroke-opacity="1"/><path d="m147.9375 92.355469 19.859375-19.863281-29.476563-29.476563-39.285156 39.28125zm0 0" fill="#cad8ea" fill-opacity="1" data-original-color="#cad8eaff" stroke="none" stroke-opacity="1"/></g><path d="m503.878906 41.132812c4.171875-19.707031-13.304687-37.1875-33.011718-33.011718-37.753907 7.996094-72.125 27.4375-98.433594 55.671875l-275.222656 283.683593-6.453126 55.480469 81.6875-69.535156 6.136719 6.136719-69.53125 81.679687 55.472657-6.449219 283.6875-275.230468c28.230468-26.304688 47.667968-60.675782 55.667968-98.425782zm0 0" fill="#e5ebf5" fill-opacity="1" data-original-color="#e5ebf5ff" stroke="none" stroke-opacity="1"/><path d="m164.519531 414.789062-55.46875 6.449219-10.625 12.484375 67.675781 67.675782 15.613282-15.617188zm0 0" fill="#009a92" fill-opacity="1" data-original-color="#d15573ff" stroke="none" stroke-opacity="1"/><path d="m97.210938 347.476562-70.996094-17.195312-15.617188 15.617188 67.683594 67.679687 12.476562-10.621094zm0 0" fill="#009a92" fill-opacity="1" data-original-color="#d15573ff" stroke="none" stroke-opacity="1"/><path d="m333.671875 279.769531 57.222656-55.519531-4.988281-24.246094-82.214844 79.765625 113.257813 197.109375 19.039062-19.039062zm0 0" fill="#078780" fill-opacity="1" data-original-color="#c21d44ff" stroke="none" stroke-opacity="1"/><path d="m65.097656 95.046875 16.363282-16.363281-24.871094-5.113282-21.472656 21.476563 197.109374 113.257813 10.734376-11.058594zm0 0" fill="#078780" fill-opacity="1" data-original-color="#c21d44ff" stroke="none" stroke-opacity="1"/><path d="m439.628906 364.050781 9.863282-9.863281-9.996094-9.996094-19.855469 19.859375 10.054687 48.902344 16.578126-16.578125zm0 0" fill="#b0c4e0" fill-opacity="1" data-original-color="#b0c4e0ff" stroke="none" stroke-opacity="1"/><path d="m422.363281 280.097656 3.003907-3.003906-9.992188-9.992188-12.996094 12.996094 10.054688 48.90625 16.578125-16.578125zm0 0" fill="#b0c4e0" fill-opacity="1" data-original-color="#b0c4e0ff" stroke="none" stroke-opacity="1"/><path d="m212.964844 99.5625 17.433594-17.4375-14.988282-14.988281-32.425781 32.425781 48.90625 10.054688 5.113281-5.113282zm0 0" fill="#b0c4e0" fill-opacity="1" data-original-color="#b0c4e0ff" stroke="none" stroke-opacity="1"/><path d="m129.015625 82.296875 24.292969-24.292969-14.988282-14.988281-39.285156 39.28125 48.902344 10.058594 5.113281-5.113281zm0 0" fill="#b0c4e0" fill-opacity="1" data-original-color="#b0c4e0ff" stroke="none" stroke-opacity="1"/><path d="m127.1875 347.476562 275.226562-283.683593c23.71875-25.457031 53.996094-43.761719 87.394532-52.976563-5.5-2.972656-12.082032-4.148437-18.941406-2.695312-37.753907 7.996094-72.125 27.4375-98.433594 55.671875l-275.222656 283.683593-6.453126 55.480469 33.273438-28.324219zm0 0" fill="#cad8ea" fill-opacity="1" data-original-color="#cad8eaff" stroke="none" stroke-opacity="1"/><path d="m208.5625 339.558594-6.140625-6.136719-67.609375 57.554687-25.761719 30.261719 33.273438-3.867187zm0 0" fill="#cad8ea" fill-opacity="1" data-original-color="#cad8eaff" stroke="none" stroke-opacity="1"/><path d="m128.40625 433.722656 10.625-12.484375 26.3125-3.058593-.824219-3.390626-55.46875 6.449219-10.625 12.484375 67.675781 67.675782 14.988282-14.992188zm0 0" fill="#078780" fill-opacity="1" data-original-color="#c21d44ff" stroke="none" stroke-opacity="1"/><path d="m40.578125 345.898438 9.773437-9.769532-24.136718-5.847656-15.617188 15.617188 67.683594 67.679687 12.476562-10.621094.714844-6.167969zm0 0" fill="#078780" fill-opacity="1" data-original-color="#c21d44ff" stroke="none" stroke-opacity="1"/><path d="m312.523438 227.738281-10.597657-10.597656 10.597657-10.597656 10.601562 10.597656zm-17.664063-17.664062-10.597656-10.601563 10.597656-10.597656 10.597656 10.597656zm0 0" fill="#009a92" fill-opacity="1" data-original-color="#ffffffff" stroke="none" stroke-opacity="1"/><path d="m391.230469 66.199219 10.601562 10.597656c9.199219-9.199219 24.160157-9.199219 33.359375 0 9.199219 9.199219 9.199219 24.164063 0 33.363281l10.601563 10.597656c15.042969-15.042968 15.042969-39.515624 0-54.558593-15.058594-15.058594-39.5-15.0625-54.5625 0zm0 0" fill="#009a92" fill-opacity="1" data-original-color="#000000ff" stroke="none" stroke-opacity="1"/><path d="m439.496094 333.59375-15.316406 15.316406-3.589844-17.464844 34.867187-34.863281-40.082031-40.078125-8.457031 8.457032-9.492188-46.152344-14.683593 3.019531c66.273437 322.289063 39.921874 194.128906 47.53125 231.132813l-11.699219 11.699218-99.394531-172.980468-12.996094 7.46875 109.144531 189.953124 31.253906-31.25-8.730469-42.453124 41.726563-41.726563zm-24.121094-55.894531 18.882812 18.882812-17.285156 17.28125-6.4375-31.320312zm12.421875 88.796875 11.699219-11.703125 18.882812 18.878906-24.144531 24.144531zm0 0" fill="#009a92" fill-opacity="1" data-original-color="#000000ff" stroke="none" stroke-opacity="1"/><path d="m469.316406.789062c-39.441406 8.351563-74.820312 28.351563-102.316406 57.835938l-272.1875 280.558594-70.921875-17.175782-23.890625 23.890626 68.609375 68.609374-32.625 48.34375 13.164063 13.160157 48.34375-32.621094 68.605468 68.605469 23.890625-23.890625-17.175781-70.921875 280.5625-272.191406c29.480469-27.492188 49.480469-62.867188 57.835938-102.308594 5.300781-25.019532-16.910157-47.183594-41.894532-41.894532zm-440.777344 337.765626 60.460938 14.644531-5.347656 45.960937c-1.796875 1.53125-.644532.550782-4.964844 4.226563l-57.488281-57.488281zm55.378907 80.066406c3.011719-2.5625 61.144531-52.046875 63.613281-54.152344l-42.277344 49.664062c-6.84375 8.046876-5.402344 6.347657-11.871094 13.949219l-29.097656 19.636719zm82.183593 72.175781-57.484374-57.484375 4.230468-4.96875 45.949219-5.34375 14.644531 60.457031zm330.445313-451.21875c-7.71875 36.433594-26.203125 69.113281-53.449219 94.5l-281.96875 273.558594-34.023437 3.957031 61.664062-72.445312-15.917969-15.917969-72.449218 61.671875 3.957031-34.035156c115.300781-118.84375 273.394531-281.796876 273.558594-281.96875 25.386719-27.246094 58.066406-45.726563 94.503906-53.445313 6.863281-1.457031 13.644531.554687 18.605469 5.515625 4.960937 4.964844 6.972656 11.746094 5.519531 18.609375zm0 0" fill="#009a92" fill-opacity="1" data-original-color="#000000ff" stroke="none" stroke-opacity="1"/><path d="m220.316406 192.816406-172.980468-99.390625 11.699218-11.699219c190.589844 39.1875 39.214844 8.0625 231.132813 47.527344l3.019531-14.683594-46.160156-9.492187 8.460937-8.460937-40.078125-40.082032-34.867187 34.871094-17.464844-3.589844 15.320313-15.324218-40.078126-40.078126-41.730468 41.730469-42.445313-8.726562-31.25 31.25 189.957031 109.148437zm-4.90625-115.082031 18.882813 18.882813-4.847657 4.847656-31.320312-6.441406zm-77.089844-24.121094 18.878907 18.882813-11.703125 11.703125-31.320313-6.441407zm0 0" fill="#009a92" fill-opacity="1" data-original-color="#000000ff" stroke="none" stroke-opacity="1"/></g></svg>