<svg id="Layer_1" enable-background="new 0 0 66 66" viewBox="0 0 66 66" xmlns="http://www.w3.org/2000/svg" width="300" height="300" version="1.1" xmlns:xlink="http://www.w3.org/1999/xlink" xmlns:svgjs="http://svgjs.dev/svgjs"><g width="100%" height="100%" transform="matrix(1,0,0,1,0,0)"><g><path d="m61.31 37.3-.45-.7c-1.13-1.78-2.1-3.32-3.47-4.37-.01-.01-.02-.02-.03-.03-1.07-.81-2.29-1.27-3.84-1.43v-25.03c0-2.22-1.74-4-3.97-4.06-10.72-.24-24.71-.24-37.42.02-2.22.04-4 1.89-3.97 4.11.05 4.15.06 10.69.07 17.61v.04c.01 8.54.02 18.21.12 25.65.04 2.37.21 4.81 1.93 6.4 1.52 1.4 3.61 1.56 5.8 1.61 4.26.09 9.25.08 14.08.08h.12c4.8 0 9.75-.01 13.93.08.41.01.78.02 1.14.02 1.26 0 2.39-.07 3.35-.21.85 2.33.78 4.71-.19 6.54-.16.29-.04.66.25.82s.66.04.82-.25c1.21-2.28 1.23-5.31.05-8.09s-3.34-4.97-4.86-6.38c-.29-.27-.58-.53-.87-.79l-.03-.02c-1.04-.94-2.12-1.91-2.96-3.02-.51-.68-1.07-1.66-.8-2.51.26-.83 1.26-1.26 2.05-1.25.82.01 1.69.36 2.76 1.08 1.58 1.07 2.97 2.49 4.01 4.1l.14.21c.34.53.69 1.08 1.24 1.49.83.61 1.83.62 2.49.04.57-.51.82-1.34.71-2.4v-14.69c1.16.14 2.09.47 2.9 1.03.19 1.85.24 3.74.18 5.79-.01.16.05.31.16.43s.26.19.42.19h.02c.33 0 .59-.26.6-.58.05-1.63.03-3.14-.07-4.62.72.83 1.36 1.85 2.11 3.03l.45.71c2.23 3.49 2.66 8.05 1.13 11.9-.29.73-.66 1.46-1.01 2.16-.43.85-.88 1.74-1.21 2.67-1.03 2.87-.93 6.67.26 9.46.1.22.31.37.56.37.08 0 .16-.02.24-.05.15-.06.26-.18.32-.33s.06-.31 0-.46c-1.08-2.53-1.17-5.97-.23-8.58.31-.86.72-1.67 1.15-2.53.37-.73.74-1.48 1.06-2.26 1.67-4.21 1.2-9.19-1.24-13zm-22.34 5.7c-.34 1.08 0 2.29.99 3.6.91 1.2 2.03 2.21 3.12 3.18l.03.02c.29.26.58.52.86.78 1.28 1.18 3.11 3.02 4.26 5.33-1.42.18-2.94.16-3.97.14-3.4-.07-7.29-.08-10.64-.08-.99 0-1.98 0-2.97 0h-.55c-4.81 0-9.78.01-13.97-.08-1.95-.04-3.8-.17-5.01-1.29-1.37-1.26-1.51-3.43-1.54-5.53-.1-7.42-.12-17.1-.13-25.63v-.04c-.02-6.91-.03-13.45-.09-17.61-.02-1.56 1.23-2.85 2.79-2.88 12.71-.25 26.68-.26 37.37-.02 1.57.04 2.79 1.29 2.79 2.85v40.92.06c.04.39.06 1.08-.31 1.4-.28.25-.7.09-.98-.11-.37-.27-.65-.71-.94-1.17l-.14-.22c-1.13-1.74-2.63-3.28-4.35-4.44-.8-.54-2.02-1.26-3.41-1.28-.02 0-.04 0-.06 0-1.25.01-2.72.72-3.15 2.1z" fill="#009a92" fill-opacity="1" data-original-color="#000000ff" stroke="none" stroke-opacity="1"/><path d="m57.14 40.37c-.16-.01-.32.04-.44.15s-.19.25-.2.41c-.03.44-.06.87-.09 1.28-.03.33.22.62.55.65h.05c.31 0 .58-.24.6-.56.03-.42.07-.85.1-1.3.01-.32-.24-.61-.57-.63z" fill="#009a92" fill-opacity="1" data-original-color="#000000ff" stroke="none" stroke-opacity="1"/><path d="m7.57 62.81c-.32-.09-.65.1-.74.42-.05.19-.1.38-.13.56-.03.16.01.32.1.45s.23.22.39.25c.04.01.07.01.11.01.29 0 .54-.21.59-.49.03-.14.06-.3.11-.46.08-.33-.11-.66-.43-.74z" fill="#009a92" fill-opacity="1" data-original-color="#000000ff" stroke="none" stroke-opacity="1"/><path d="m9.64 58c-.16.03-.29.12-.38.26-.1.14-.97 1.46-1.69 3-.07.15-.08.31-.02.46s.17.27.31.34c.08.04.17.06.25.06.23 0 .45-.14.55-.35.71-1.51 1.58-2.83 1.59-2.84.19-.28.11-.65-.16-.84-.13-.09-.29-.12-.45-.09z" fill="#009a92" fill-opacity="1" data-original-color="#000000ff" stroke="none" stroke-opacity="1"/><path d="m13.3 60.22c-.03-.33-.32-.58-.66-.55-.16.01-.31.09-.41.21s-.15.28-.14.44c.11 1.23.31 2.47.59 3.67.06.28.31.47.59.47.05 0 .09-.01.14-.02.32-.08.53-.4.45-.72-.26-1.15-.45-2.33-.56-3.5z" fill="#009a92" fill-opacity="1" data-original-color="#000000ff" stroke="none" stroke-opacity="1"/><path d="m7.54 57.22c.03-.16 0-.32-.1-.45-.19-.27-.56-.34-.84-.16l-3.88 2.65c-.13.09-.22.23-.25.39s0 .32.1.45c.11.16.3.26.5.26.12 0 .24-.04.34-.11l3.88-2.65c.13-.08.22-.22.25-.38z" fill="#009a92" fill-opacity="1" data-original-color="#000000ff" stroke="none" stroke-opacity="1"/><path d="m45.63 30.5c-.03-4-.07-7.62-.1-11.39l-.06-6.69c-.01-.64-.02-1.6-.6-2.31-.71-.84-1.84-.92-2.84-.92-.16 0-15.93-.05-16.85-.05-1.24 0-2.65.01-4.6.03l-1.32.01c-1.69.01-3.06 1.4-3.06 3.09v1.57c-.01 2.31-.03 4.87-.05 7.13-.03 4.07-.07 7.91-.03 10.88.01.79.06 1.61.64 2.22.66.7 1.68.73 2.29.75 4.85.16 7.89.24 11.08.24 2.99 0 6.14-.07 11.25-.26 1.24-.05 2.64-.19 3.5-1.22.72-.86.76-1.99.75-3.08zm-28.24-18.23c0-1.03.84-1.88 1.87-1.88l1.32-.01c1.91-.02 3.14-.03 4.24-.03h.35 1.77l.09 5.65c-.01.42-.03 1.19.57 1.65.36.27.67.29.99.29h.09c.84 0 1.36-.9 1.81-1.68.13-.23.35-.61.5-.78.21.17.55.66.74.94.54.79 1.06 1.54 1.83 1.5.25-.01.78-.14 1.06-.51.31-.41.29-.95.28-1.21l-.01-5.81 7.14.01c.77 0 1.54.04 1.92.49.29.35.32.91.32 1.55l.06 7c.03 3.66.06 7.2.1 11.09.01.89-.02 1.74-.48 2.29-.55.66-1.64.75-2.62.79-9.82.36-12.98.33-22.25.02-.57-.02-1.16-.06-1.45-.37-.28-.29-.31-.83-.31-1.41-.04-2.94 0-6.76.03-10.82v-.04c.02-2.26.04-4.82.05-7.14zm16.28 4.39c-.03.02-.11.04-.14.05-.18-.07-.62-.71-.81-.98-.53-.76-1.02-1.49-1.76-1.5-.69 0-1.08.67-1.49 1.38l-.03.05c-.17.29-.6 1.05-.81 1.08-.24 0-.25 0-.31-.05-.11-.08-.1-.53-.09-.68l-.09-5.65 1.43.01c1.18.01 2.3.02 4.1.02l.01 5.83v.03c.01.28 0 .38-.01.41z" fill="#009a92" fill-opacity="1" data-original-color="#000000ff" stroke="none" stroke-opacity="1"/><path d="m22.35 32.5c.04.01.07.01.11.01.29 0 .54-.21.59-.49.25-1.38.32-2.79.19-4.18-.01-.16-.09-.31-.21-.41s-.28-.15-.44-.14-.31.09-.41.21-.15.28-.14.44c.12 1.28.06 2.58-.18 3.85-.06.34.16.65.49.71z" fill="#009a92" fill-opacity="1" data-original-color="#000000ff" stroke="none" stroke-opacity="1"/><path d="m25.33 32.5h.03c.32 0 .59-.25.6-.58l.17-4.06c.01-.16-.05-.31-.16-.43s-.26-.19-.42-.19c-.16-.01-.31.05-.43.15-.12.11-.19.26-.2.42l-.17 4.06c-.01.33.25.61.58.63z" fill="#009a92" fill-opacity="1" data-original-color="#000000ff" stroke="none" stroke-opacity="1"/><path d="m27.7 31.78c-.03.16.01.32.1.45s.23.22.39.24c.03.01.07.01.1.01.3 0 .55-.21.59-.5.24-1.43.19-2.87-.14-4.29-.08-.32-.4-.53-.72-.45s-.53.4-.45.73c.3 1.25.34 2.54.13 3.81z" fill="#009a92" fill-opacity="1" data-original-color="#000000ff" stroke="none" stroke-opacity="1"/><path d="m20.02 32.51c.33 0 .6-.27.6-.6v-4.07c0-.33-.27-.6-.6-.6s-.6.27-.6.6v4.07c-.01.33.27.6.6.6z" fill="#009a92" fill-opacity="1" data-original-color="#000000ff" stroke="none" stroke-opacity="1"/><path d="m42.21 38.81c0 .33.27.6.6.6h5.33c.33 0 .6-.27.6-.6s-.27-.6-.6-.6h-5.33c-.33 0-.6.27-.6.6z" fill="#009a92" fill-opacity="1" data-original-color="#000000ff" stroke="none" stroke-opacity="1"/><path d="m40.02 38.21h-8.33c-5.84 0-11.87 0-16.85 0-.33 0-.6.27-.6.6 0 .16.06.31.18.43.11.11.27.18.43.18h8.72 9.05 7.41c.33 0 .6-.27.6-.6s-.28-.61-.61-.61z" fill="#009a92" fill-opacity="1" data-original-color="#000000ff" stroke="none" stroke-opacity="1"/><path d="m37 43.61c.33 0 .6-.27.6-.6s-.27-.6-.6-.61c-7.42-.02-14.92.04-22.3.18-.16 0-.31.07-.42.18s-.17.27-.17.43c.01.33.28.59.61.59 7.38-.13 14.88-.19 22.28-.17z" fill="#009a92" fill-opacity="1" data-original-color="#000000ff" stroke="none" stroke-opacity="1"/><path d="m14.83 47.06c-.33 0-.6.27-.6.6s.27.6.6.6h21.27c.33 0 .6-.27.6-.6s-.27-.6-.6-.6z" fill="#009a92" fill-opacity="1" data-original-color="#000000ff" stroke="none" stroke-opacity="1"/><path d="m30.36 51.42c-3.02-.01-6.15-.02-8.92-.02-.33 0-.6.27-.6.6s.27.6.6.6c3.27.01 7.05.01 10.5.02h.33c2.79.01 5.2.02 7.01.02h1.53c.33 0 .6-.27.6-.61 0-.33-.27-.6-.61-.6-1.77.01-4.89 0-8.51-.01z" fill="#009a92" fill-opacity="1" data-original-color="#000000ff" stroke="none" stroke-opacity="1"/><path d="m18.97 51.4c-1.93.01-3.33.02-4.27.04-.16 0-.31.07-.42.18-.11.12-.17.27-.17.43.01.33.28.59.61.59.95-.02 2.34-.03 4.25-.03.33 0 .6-.27.6-.6 0-.34-.27-.61-.6-.61z" fill="#009a92" fill-opacity="1" data-original-color="#000000ff" stroke="none" stroke-opacity="1"/></g></g></svg>