<svg id="Layer_1" enable-background="new 0 0 512 512" viewBox="0 0 512 512" xmlns="http://www.w3.org/2000/svg" width="300" height="300" version="1.1" xmlns:xlink="http://www.w3.org/1999/xlink" xmlns:svgjs="http://svgjs.dev/svgjs"><g width="100%" height="100%" transform="matrix(1,0,0,1,0,0)"><path d="m341.339 279.611c0 29.597 24.079 53.676 53.676 53.676s53.675-24.079 53.675-53.676c0-29.593-24.078-53.669-53.675-53.669s-53.676 24.077-53.676 53.669zm93.35 0c0 21.877-17.798 39.676-39.675 39.676s-39.676-17.799-39.676-39.676c0-21.873 17.799-39.669 39.676-39.669s39.675 17.796 39.675 39.669zm-39.674 66.574c-59.547 0-107.992 48.442-107.992 107.985 0 11.238 6.271 26.943 36.141 37.941 19.071 7.021 44.587 10.888 71.849 10.888 53.75 0 107.987-15.099 107.987-48.829 0-59.543-48.442-107.985-107.985-107.985zm-.003 142.814c-53.583 0-93.989-14.973-93.989-34.829 0-51.823 42.165-93.985 93.992-93.985 51.823 0 93.985 42.162 93.985 93.985 0 19.856-40.406 34.829-93.988 34.829zm-83.824-197.807c2.564 0 4.948-1.42 6.175-3.728 1.362-2.564.989-5.716-.922-7.902-.89-1.019-20.826-24.395-14.016-64.037h79.267c13.055 0 23.676-10.62 23.676-23.675v-159.175c-.001-13.055-10.622-23.675-23.677-23.675h-251.383c-13.055 0-23.675 10.62-23.675 23.675v159.176c0 13.055 10.62 23.675 23.675 23.675h92.514c1.102 7.013 3.905 18.547 11.031 30.609 10.313 17.459 31.952 39.438 76.47 45.004.289.036.577.053.865.053zm-75.08-82.811c-.078-3.809-3.188-6.855-6.998-6.855h-98.803c-5.335 0-9.675-4.34-9.675-9.675v-159.176c0-5.335 4.34-9.675 9.675-9.675h251.384c5.335 0 9.676 4.34 9.676 9.675v159.176c0 5.335-4.341 9.675-9.676 9.675h-85.007c-3.27 0-6.104 2.264-6.827 5.453-6.91 30.493.085 53.663 6.903 67.448-58.502-14.614-60.589-63.817-60.652-66.046zm-.885-47.191c0 3.866-3.134 7-7 7h-85.091c-3.866 0-7-3.134-7-7s3.134-7 7-7h85.091c3.866 0 7 3.134 7 7zm0-48.927c0 3.866-3.134 7-7 7h-85.091c-3.866 0-7-3.134-7-7s3.134-7 7-7h85.091c3.866 0 7 3.133 7 7zm0-48.928c0 3.866-3.134 7-7 7h-85.091c-3.866 0-7-3.134-7-7s3.134-7 7-7h85.091c3.866 0 7 3.134 7 7zm140.644 48.928c0-34.741-28.264-63.005-63.004-63.005-34.741 0-63.005 28.264-63.005 63.005s28.264 63.005 63.005 63.005 63.004-28.264 63.004-63.005zm-56.005 43.994v-36.995h13.963c-1.285 17.421-7.233 31.14-13.963 36.995zm0-50.994v-36.994c6.729 5.855 12.678 19.574 13.963 36.994zm-14-36.992v36.992h-13.961c1.285-17.418 7.233-31.137 13.961-36.992zm0 50.992v36.993c-6.729-5.856-12.676-19.574-13.961-36.993zm33.076 34.461c4.867-9.227 8.08-21.135 8.921-34.462h13.501c-2.084 14.499-10.536 26.96-22.422 34.462zm22.421-48.461h-13.501c-.841-13.327-4.054-25.235-8.922-34.462 11.888 7.502 20.34 19.963 22.423 34.462zm-74.569-34.463c-4.868 9.227-8.082 21.136-8.922 34.463h-13.502c2.084-14.499 10.536-26.961 22.424-34.463zm-22.424 48.463h13.502c.841 13.327 4.054 25.236 8.921 34.462-11.887-7.502-20.339-19.964-22.423-34.462zm-71.223 130.037h-34.216v-3.947c0-3.866-3.134-7-7-7h-17.615c-3.07-11.057-13.226-19.195-25.246-19.195s-22.176 8.139-25.246 19.195h-17.616c-3.866 0-7 3.134-7 7v3.947h-34.216c-8.816 0-15.988 7.172-15.988 15.988v221.723c0 8.816 7.172 15.989 15.988 15.989h168.154c8.816 0 15.988-7.173 15.988-15.989v-221.723c.001-8.816-7.171-15.988-15.987-15.988zm-119.939 3.053h16.666c3.866 0 7-3.134 7-7 0-6.725 5.471-12.195 12.195-12.195s12.195 5.471 12.195 12.195c0 3.866 3.134 7 7 7h16.666v14.925h-71.722zm121.927 234.658c0 1.078-.91 1.989-1.988 1.989h-168.155c-1.078 0-1.988-.911-1.988-1.989v-221.723c0-1.078.91-1.988 1.988-1.988h34.216v10.978c0 3.866 3.134 7 7 7h85.723c3.866 0 7-3.134 7-7v-10.978h34.216c1.078 0 1.988.91 1.988 1.988zm-86.066-172.26c-36.573 0-66.327 29.755-66.327 66.328s29.754 66.327 66.327 66.327 66.327-29.754 66.327-66.327-29.753-66.328-66.327-66.328zm0 118.655c-28.854 0-52.327-23.474-52.327-52.327s23.474-52.328 52.327-52.328 52.327 23.475 52.327 52.328-23.473 52.327-52.327 52.327zm28.466-75.823c2.823 2.642 2.969 7.071.327 9.894l-34.419 36.771c-1.325 1.416-3.176 2.217-5.11 2.217-.053 0-.104-.001-.157-.002-1.991-.045-3.869-.936-5.163-2.449l-18.818-22.01c-2.513-2.938-2.167-7.357.771-9.869 2.937-2.512 7.356-2.167 9.869.771l13.734 16.063 29.072-31.06c2.643-2.823 7.075-2.966 9.894-.326z" fill="#009a92" fill-opacity="1" data-original-color="#000000ff" stroke="none" stroke-opacity="1"/></g></svg>